<?xml version="1.0" standalone="no"?>
<!DOCTYPE svg PUBLIC "-//W3C//DTD SVG 20010904//EN"
 "http://www.w3.org/TR/2001/REC-SVG-20010904/DTD/svg10.dtd">
<svg version="1.0" xmlns="http://www.w3.org/2000/svg"
 width="659.000000pt" height="153.000000pt" viewBox="0 0 659.000000 113.000000"
 preserveAspectRatio="xMidYMid meet">

<g transform="translate(0.000000,133.000000) scale(0.100000,-0.100000)"
fill="#000000" stroke="none">
<path d="M17 1278 c-4 -133 -7 -279 -7 -325 l0 -83 78 0 c93 0 145 21 189 74
79 97 96 332 32 458 -36 71 -127 118 -229 118 l-57 0 -6 -242z m160 130 c42
-47 57 -90 61 -187 6 -123 -9 -192 -49 -226 -17 -14 -39 -25 -50 -25 -22 0
-24 34 -12 303 6 166 11 177 50 135z"/>
<path d="M2877 1513 c-3 -5 -8 -151 -12 -325 l-7 -318 78 0 c183 1 258 98 259
335 0 176 -45 259 -163 299 -47 17 -147 22 -155 9z m161 -119 c17 -20 35 -56
41 -80 14 -54 14 -207 1 -256 -12 -41 -61 -88 -92 -88 -21 0 -21 3 -15 158 4
86 7 190 7 230 0 85 12 92 58 36z"/>
<path d="M1240 1482 c-39 -19 -94 -94 -110 -150 -18 -64 -31 -205 -25 -272 10
-97 23 -137 57 -176 94 -107 225 -80 273 56 45 127 41 385 -7 479 -39 74 -115
100 -188 63z m105 -106 c23 -54 28 -153 15 -276 -13 -128 -32 -170 -76 -170
-60 0 -81 68 -71 235 8 143 49 245 99 245 12 0 24 -12 33 -34z"/>
<path d="M3928 1323 c-9 -13 -28 -18 -65 -19 -77 -2 -131 -36 -165 -103 -32
-62 -36 -117 -12 -166 21 -45 67 -65 149 -65 l68 0 -5 -51 c-3 -28 -12 -57
-21 -66 -9 -9 -46 -19 -94 -24 -43 -4 -79 -8 -81 -8 -2 -1 -2 -18 0 -38 l3
-38 101 0 c92 0 104 2 141 27 65 43 70 64 79 322 8 251 9 246 -53 246 -19 0
-37 -7 -45 -17z m-38 -187 c0 -63 0 -64 -30 -70 -36 -7 -75 6 -84 29 -8 21 17
80 41 94 10 6 30 11 46 11 27 0 27 -1 27 -64z"/>
<path d="M4185 1313 c-32 -8 -84 -51 -100 -83 -21 -41 -19 -92 5 -118 27 -29
93 -62 122 -62 59 0 91 -61 56 -105 -30 -38 -69 -33 -106 12 l-29 36 -37 -22
c-40 -25 -43 -38 -21 -81 22 -42 69 -64 140 -65 109 0 175 65 175 176 0 84
-21 104 -155 151 -28 10 -41 20 -43 36 -3 18 1 22 25 22 15 -1 39 -7 53 -15
35 -20 37 -19 65 23 28 42 26 60 -6 81 -23 14 -112 23 -144 14z"/>
<path d="M560 1301 c-118 -36 -187 -152 -161 -271 14 -63 31 -97 68 -132 38
-36 73 -48 143 -48 155 0 248 171 176 325 -45 99 -141 152 -226 126z m95 -125
c52 -52 57 -155 9 -203 -21 -21 -32 -24 -62 -19 -44 7 -67 34 -82 96 -12 50
-2 100 26 131 25 27 79 25 109 -5z"/>
<path d="M2444 1286 c-28 -13 -55 -30 -60 -37 -6 -10 -10 -5 -14 16 -5 29 -7
30 -50 26 -25 -1 -46 -4 -48 -6 -2 -2 -8 -50 -14 -107 -12 -123 -4 -308 15
-320 6 -4 28 -8 49 -8 l36 0 7 108 c3 59 9 119 11 135 9 47 63 94 132 114 54
15 62 21 58 38 -3 11 -6 30 -6 43 0 18 -5 22 -32 22 -18 0 -56 -11 -84 -24z"/>
<path d="M3385 1295 c-51 -18 -120 -91 -134 -141 -27 -97 4 -213 72 -268 32
-26 48 -31 106 -34 50 -3 78 0 105 13 49 24 103 86 116 136 27 100 -28 241
-110 284 -42 22 -111 26 -155 10z m117 -122 c30 -33 41 -65 40 -113 -3 -69
-37 -110 -92 -110 -51 0 -100 97 -86 171 14 78 87 105 138 52z"/>
<path d="M1515 1269 c7 -34 80 -373 90 -416 5 -20 12 -23 59 -23 l54 0 15 43
c90 250 117 332 117 353 0 22 -3 24 -54 24 l-53 0 -26 -107 c-15 -58 -30 -110
-35 -115 -4 -4 -16 53 -26 127 l-19 135 -47 0 c-27 0 -56 3 -65 7 -15 5 -16 1
-10 -28z"/>
<path d="M2035 1291 c-122 -22 -182 -111 -173 -258 9 -143 61 -203 176 -203
74 0 116 16 157 59 l29 31 -27 27 -27 27 -63 -32 c-52 -27 -68 -31 -89 -23
-30 11 -38 29 -38 86 l0 43 93 21 c50 11 107 24 124 27 32 6 33 7 27 48 -9 56
-38 122 -61 134 -28 15 -83 21 -128 13z m75 -88 c0 -5 3 -17 6 -29 5 -18 0
-22 -33 -27 -21 -4 -53 -9 -70 -13 -44 -9 -44 15 -2 50 29 25 99 37 99 19z"/>
<path d="M5260 573 c0 -32 -3 -95 -7 -141 -5 -68 -9 -82 -22 -80 -12 2 -17 -8
-19 -44 -3 -43 -1 -48 17 -48 19 0 21 -6 21 -65 0 -118 34 -162 134 -172 l56
-6 0 41 c0 41 0 41 -35 40 -50 -2 -75 24 -75 78 0 67 6 74 60 74 50 0 60 10
60 67 0 19 -6 22 -52 25 -46 3 -53 6 -51 23 1 11 5 75 9 143 l7 122 -52 0 -51
0 0 -57z"/>
<path d="M6180 597 c-49 -17 -70 -63 -70 -153 0 -61 -3 -72 -18 -76 -15 -4
-18 -14 -16 -49 1 -30 7 -45 17 -47 15 -3 22 -55 30 -217 l2 -50 45 0 c52 0
49 -13 37 167 l-8 107 28 3 c32 3 40 28 24 71 -8 19 -18 27 -36 27 -24 0 -25
3 -25 53 0 61 19 87 66 90 27 2 29 6 29 42 0 39 -1 40 -35 42 -19 1 -51 -3
-70 -10z"/>
<path d="M3035 320 c4 -151 11 -279 15 -283 4 -5 23 -7 41 -5 l34 3 3 96 c3
104 5 108 68 109 25 0 34 -31 34 -119 0 -73 8 -83 56 -79 l39 3 3 124 c4 165
-3 176 -97 167 -36 -3 -76 -9 -88 -12 -23 -6 -23 -5 -23 83 0 50 -3 111 -6
136 -6 44 -7 45 -46 49 l-40 4 7 -276z"/>
<path d="M5981 574 c-40 -50 -20 -104 37 -104 45 0 70 80 36 114 -23 23 -50
19 -73 -10z"/>
<path d="M2400 451 l0 -141 -38 0 c-53 0 -137 -44 -162 -84 -41 -68 -34 -145
17 -186 31 -24 104 -27 157 -5 36 15 36 15 36 -10 0 -22 4 -25 34 -25 19 0 37
3 40 8 2 4 6 135 7 292 l3 285 -47 3 -47 3 0 -140z m-10 -275 l0 -54 -50 -12
c-59 -14 -70 -9 -70 34 0 50 37 85 93 86 26 0 27 -2 27 -54z"/>
<path d="M84 561 c-17 -11 -37 -34 -43 -53 -12 -34 -24 -164 -36 -386 l-6
-123 43 3 43 3 0 95 0 95 40 0 40 0 5 -85 5 -85 38 -3 37 -3 0 235 c0 129 -4
246 -9 259 -25 65 -95 86 -157 48z m76 -100 c11 -21 14 -142 4 -178 -5 -18
-13 -23 -42 -23 l-35 0 6 96 c3 52 11 102 17 110 17 20 37 18 50 -5z"/>
<path d="M5004 561 c-52 -31 -58 -68 -79 -444 l-7 -118 43 3 43 3 0 95 1 95
42 3 42 3 3 -88 3 -88 38 -3 37 -3 0 236 c0 250 -6 292 -48 314 -31 17 -84 13
-118 -8z m76 -100 c11 -22 14 -121 4 -170 -6 -28 -10 -31 -42 -31 l-35 0 6 96
c3 52 11 102 17 110 17 20 37 18 50 -5z"/>
<path d="M580 559 c-70 -28 -101 -100 -74 -169 9 -22 26 -47 38 -55 11 -9 42
-36 68 -61 66 -64 76 -128 24 -152 -20 -9 -27 -7 -40 7 -9 10 -16 25 -16 35 0
14 -7 17 -37 14 -45 -4 -53 -26 -29 -82 30 -73 130 -84 192 -22 55 55 62 136
18 204 -9 15 -46 53 -81 85 -49 46 -63 65 -63 87 0 45 20 48 55 7 l32 -37 27
29 c31 33 30 55 -7 88 -27 26 -74 35 -107 22z"/>
<path d="M2844 551 c-69 -42 -105 -128 -106 -246 0 -162 74 -265 191 -265 61
0 71 7 71 51 0 39 0 39 -41 39 -90 0 -141 122 -108 256 12 48 56 94 90 94 15
0 19 7 19 39 0 32 -4 40 -22 45 -38 10 -62 7 -94 -13z"/>
<path d="M5697 553 c-4 -3 -7 -123 -7 -265 l0 -258 23 1 c12 0 58 6 101 12 89
14 107 28 90 74 -10 29 -13 30 -86 17 l-38 -7 0 217 0 216 -38 0 c-21 0 -42
-3 -45 -7z"/>
<path d="M1215 414 c-74 -40 -105 -95 -105 -185 0 -131 69 -199 187 -185 100
12 137 49 99 101 -13 18 -15 18 -39 2 -39 -26 -108 -22 -135 6 -34 36 -31 107
7 149 26 29 35 33 74 31 42 -1 46 1 58 29 19 46 3 63 -62 65 -35 2 -65 -3 -84
-13z"/>
<path d="M3466 416 c-21 -8 -51 -27 -67 -42 l-29 -28 22 -23 c26 -28 40 -29
63 -3 24 27 70 26 89 -2 24 -34 19 -47 -21 -53 -95 -14 -153 -73 -153 -155 0
-64 28 -90 96 -90 27 1 60 7 74 14 21 12 26 12 36 -1 8 -12 17 -14 40 -6 25 8
30 16 37 62 5 30 5 101 -1 163 -8 102 -11 112 -38 138 -36 36 -93 46 -148 26z
m94 -261 c0 -40 -24 -58 -73 -53 -28 3 -32 6 -29 28 4 33 37 60 73 60 26 0 29
-3 29 -35z"/>
<path d="M4149 407 c-33 -18 -51 -37 -71 -76 -63 -121 -12 -266 100 -287 48
-9 141 11 166 35 17 17 18 23 6 50 -14 34 -25 38 -54 16 -27 -21 -99 -19 -126
3 -29 24 -37 89 -15 131 19 37 73 64 109 55 20 -5 27 0 40 25 20 37 20 36 0
55 -24 24 -102 20 -155 -7z"/>
<path d="M1563 410 c-49 -11 -79 -35 -109 -86 -36 -61 -37 -143 -3 -206 48
-86 162 -112 247 -55 49 32 72 80 72 151 0 131 -97 223 -207 196z m61 -91 c14
-7 32 -26 41 -44 39 -84 -6 -170 -80 -151 -52 13 -74 129 -34 180 23 29 36 32
73 15z"/>
<path d="M912 399 c-115 -27 -168 -190 -103 -317 26 -51 52 -63 128 -63 54 0
70 4 99 26 42 32 51 50 34 70 -17 21 -49 19 -85 -5 -58 -38 -92 -24 -101 42
l-6 45 98 23 c55 12 103 26 108 30 14 13 -13 106 -37 128 -28 26 -79 33 -135
21z m79 -80 c8 -17 8 -23 -2 -29 -15 -10 -99 -23 -105 -17 -9 8 37 56 59 60
12 2 25 5 29 6 4 0 12 -9 19 -20z"/>
<path d="M1817 404 c-4 -4 -7 -92 -7 -196 l0 -188 45 0 45 0 0 85 c0 94 14
140 54 180 61 60 94 20 106 -130 4 -58 10 -109 13 -111 3 -3 22 -2 42 2 l38 7
-7 136 c-7 148 -20 185 -69 209 -34 16 -97 1 -144 -34 l-32 -24 -3 32 c-3 30
-7 33 -38 36 -20 2 -39 0 -43 -4z"/>
<path d="M3694 397 c-2 -7 -3 -94 -2 -192 l3 -180 43 -3 42 -3 0 85 c0 95 10
126 54 174 63 67 95 30 108 -126 5 -58 11 -108 13 -110 2 -2 21 -1 42 2 l38 7
-7 129 c-7 141 -12 165 -37 194 -38 44 -113 39 -178 -10 l-33 -25 0 35 c0 35
-1 36 -40 36 -24 0 -43 -5 -46 -13z"/>
<path d="M4501 400 c-49 -12 -83 -40 -109 -91 -20 -37 -23 -55 -19 -114 4 -76
33 -147 66 -165 28 -15 137 -12 169 4 46 24 65 51 52 75 -14 26 -46 27 -85 1
-59 -39 -105 -17 -105 49 l0 38 103 25 102 24 -3 39 c-4 42 -22 84 -46 104
-20 17 -82 22 -125 11z m80 -87 c7 -20 3 -23 -47 -34 -62 -14 -75 -8 -48 22
38 42 82 48 95 12z"/>
<path d="M6411 400 c-79 -19 -121 -79 -129 -179 -3 -54 0 -77 18 -118 29 -67
54 -83 130 -83 64 0 102 14 133 48 15 16 16 24 7 41 -14 26 -46 27 -85 1 -62
-41 -105 -19 -105 53 l0 35 103 24 102 24 -3 39 c-4 41 -22 84 -44 103 -19 16
-87 22 -127 12z m78 -82 c6 -15 5 -25 -3 -30 -20 -11 -106 -21 -106 -11 0 14
42 50 65 56 34 8 35 8 44 -15z"/>
<path d="M5966 381 c-11 -17 -27 -334 -17 -344 4 -4 24 -7 42 -5 l34 3 6 65
c4 36 10 116 14 178 l7 112 -40 0 c-23 0 -43 -4 -46 -9z"/>
</g>
</svg>
